<svg width="146" height="22" viewBox="0 0 146 22" fill="none" xmlns="http://www.w3.org/2000/svg">
<path d="M67 21.2798V18.9233C67 18.9233 72.8911 16.5669 78.7822 16.5669C84.6733 16.5669 90.5644 18.9233 90.5644 18.9233V21.2798H67ZM77.9574 6.08074C76.5436 1.48569 69.3564 2.54609 69.3564 2.54609C69.3564 2.54609 69.5921 11.7362 76.3079 10.3223C75.8366 6.9055 74.0693 5.96292 74.0693 5.96292C77.3683 5.96292 77.604 9.96886 77.604 9.96886V15.3887H79.9604V10.4401C79.9604 10.4401 79.9604 5.8451 83.495 4.66688C83.495 4.66688 81.1386 8.20153 81.1386 10.558C89.3861 11.3827 89.3861 0.0718315 89.3861 0.0718315C89.3861 0.0718315 78.9 -1.10639 77.9574 6.08074Z" fill="url(#paint0_linear_3_9)"/>
<path d="M6.61816 6.10156C6.1377 5.77344 5.5957 5.60938 4.99219 5.60938C4.39453 5.60938 3.90527 5.76758 3.52441 6.08398C3.14355 6.39453 2.95312 6.83398 2.95312 7.40234C2.95312 7.96484 3.2373 8.46289 3.80566 8.89648C4.14551 9.16016 4.83984 9.51758 5.88867 9.96875C6.9375 10.4199 7.66699 10.8359 8.07715 11.2168C8.8623 11.9434 9.25488 12.6992 9.25488 13.4844V13.8008C9.25488 14.7734 8.86816 15.5645 8.09473 16.1738C7.7373 16.4551 7.29199 16.6807 6.75879 16.8506C6.22559 17.0146 5.69238 17.0967 5.15918 17.0967H4.83398C3.62695 17.0967 2.56934 16.915 1.66113 16.5518C1.25098 16.3877 1.0459 15.9395 1.0459 15.207V14.8994C1.0459 14.0322 1.19531 13.5986 1.49414 13.5986C1.69922 13.5986 1.97754 13.877 2.3291 14.4336C2.68066 14.9902 3.08496 15.4092 3.54199 15.6904C4.00488 15.9717 4.56152 16.1123 5.21191 16.1123C5.8623 16.1123 6.38672 15.9424 6.78516 15.6025C7.18359 15.2568 7.38281 14.832 7.38281 14.3281C7.38281 13.6367 7.06055 13.0537 6.41602 12.5791C6.14062 12.3799 5.44922 12.0254 4.3418 11.5156C3.23438 11 2.4668 10.5195 2.03906 10.0742C1.45312 9.46484 1.16016 8.7207 1.16016 7.8418C1.16016 6.96289 1.47363 6.2334 2.10059 5.65332C2.44629 5.33105 2.87695 5.08203 3.39258 4.90625C3.9082 4.72461 4.43555 4.63379 4.97461 4.63379H5.2998C5.52246 4.63379 5.83887 4.67187 6.24902 4.74805L6.55664 4.80957C6.91992 4.87988 7.11621 4.91797 7.14551 4.92383L7.41797 4.94141L7.68164 4.9502C7.92773 4.96777 8.10059 4.99707 8.2002 5.03809C8.5459 5.17871 8.71875 5.66797 8.71875 6.50586C8.71875 7.34375 8.55469 7.7627 8.22656 7.7627C8.0625 7.7627 7.81641 7.52832 7.48828 7.05957C7.16016 6.59082 6.87012 6.27148 6.61816 6.10156ZM17.2969 10.9707C17.0508 10.9707 16.708 10.7158 16.2686 10.2061C15.835 9.69629 15.3311 9.44141 14.7568 9.44141C14.1885 9.44141 13.7109 9.72559 13.3242 10.2939C12.9375 10.8564 12.7441 11.6562 12.7441 12.6934C12.7441 13.7305 12.9814 14.542 13.4561 15.1279C13.9365 15.708 14.5605 15.998 15.3281 15.998C15.75 15.998 16.1016 15.9453 16.3828 15.8398C16.6699 15.7344 16.9336 15.623 17.1738 15.5059C17.4199 15.3828 17.5928 15.3213 17.6924 15.3213C17.8623 15.3213 17.9473 15.4326 17.9473 15.6553C17.9473 15.9951 17.6045 16.332 16.9189 16.666C16.2334 17 15.5684 17.167 14.9238 17.167C13.6699 17.167 12.6621 16.7744 11.9004 15.9893C11.5898 15.667 11.3291 15.2539 11.1182 14.75C10.9072 14.2402 10.8018 13.6953 10.8018 13.1152V12.6846C10.8018 12.6729 10.8018 12.6582 10.8018 12.6406C10.8018 12.6289 10.8018 12.6172 10.8018 12.6055C10.8018 12.0957 10.916 11.5684 11.1445 11.0234C11.5957 9.95703 12.3223 9.21875 13.3242 8.80859C13.9043 8.57422 14.4814 8.45703 15.0557 8.45703H15.2578C16.0488 8.45703 16.7197 8.59473 17.2705 8.87012C17.7158 9.09277 17.9385 9.46484 17.9385 9.98633C17.9385 10.332 17.8682 10.584 17.7275 10.7422C17.5928 10.8945 17.4492 10.9707 17.2969 10.9707ZM23.8711 16.6572C23.8711 16.8857 23.3408 17 22.2803 17H21.3486L20.9795 16.9824L20.4258 16.9736C19.8047 16.9736 19.4941 16.8623 19.4941 16.6396C19.4941 16.4814 19.6318 16.3145 19.9072 16.1387C20.1885 15.957 20.376 15.7256 20.4697 15.4443C20.5693 15.1572 20.6191 14.3164 20.6191 12.9219C20.6191 11.5273 20.5723 10.6807 20.4785 10.3818C20.3906 10.083 20.25 9.86914 20.0566 9.74023C19.7109 9.51172 19.5381 9.34473 19.5381 9.23926C19.5381 9.13379 19.5996 9.04004 19.7227 8.95801C20.0859 8.71191 20.7012 8.58887 21.5684 8.58887H21.7354C22.0693 8.58887 22.3066 8.75879 22.4473 9.09863C22.5879 9.43262 22.7021 9.59961 22.79 9.59961C22.8779 9.59961 23.0273 9.51758 23.2383 9.35352C23.4551 9.18945 23.7129 9.02539 24.0117 8.86133C24.3164 8.69727 24.6533 8.61523 25.0225 8.61523C25.3916 8.61523 25.6729 8.71191 25.8662 8.90527C26.0654 9.09277 26.165 9.33594 26.165 9.63477C26.1592 9.93945 26.0801 10.168 25.9277 10.3203C25.7754 10.4727 25.6113 10.5488 25.4355 10.5488C25.2598 10.5488 25.0283 10.4785 24.7412 10.3379C24.4541 10.1914 24.2139 10.1182 24.0205 10.1182C23.8271 10.1182 23.6162 10.2002 23.3877 10.3643C23.1592 10.5225 22.9629 10.8096 22.7988 11.2256C22.6406 11.6357 22.5615 12.3418 22.5615 13.3438C22.5615 14.3398 22.6318 14.9844 22.7725 15.2773C22.9131 15.5645 23.1299 15.8281 23.4229 16.0684C23.7217 16.3086 23.8711 16.5049 23.8711 16.6572ZM30.5771 5.71484C30.5771 5.97266 30.4658 6.21289 30.2432 6.43555C30.0264 6.65234 29.8096 6.76074 29.5928 6.76074C29.5459 6.77246 29.5078 6.77832 29.4785 6.77832L29.2852 6.7959C28.9922 6.7959 28.7285 6.69922 28.4941 6.50586C28.2656 6.3125 28.1514 6.06348 28.1514 5.75879V5.60059C28.1514 5.2959 28.2715 5.04102 28.5117 4.83594C28.7578 4.625 29.0391 4.51953 29.3555 4.51953H29.3994L29.6982 4.55469C29.8799 4.55469 30.0674 4.6543 30.2607 4.85352C30.46 5.04688 30.5596 5.24316 30.5596 5.44238L30.5771 5.52148V5.71484ZM27.7822 9.63477C27.4775 9.48828 27.3252 9.35059 27.3252 9.22168C27.3252 9.09277 27.3867 8.99023 27.5098 8.91406C27.9375 8.65625 28.6143 8.52734 29.54 8.52734H29.7949C30.1113 8.52734 30.29 8.67383 30.3311 8.9668C30.3545 9.125 30.3662 10.1914 30.3662 12.166C30.3662 14.1348 30.4072 15.2656 30.4893 15.5586C30.5713 15.8457 30.7676 16.0684 31.0781 16.2266C31.3887 16.3789 31.5439 16.5342 31.5439 16.6924C31.5439 16.915 30.8174 17.0264 29.3643 17.0264L29.1006 17.0352H28.0283C27.6006 17.0352 27.3867 16.9297 27.3867 16.7188C27.3867 16.543 27.5156 16.373 27.7734 16.209C28.0371 16.0449 28.2188 15.8633 28.3184 15.6641C28.4297 15.4473 28.4854 14.9404 28.4854 14.1436L28.4941 13.8623V13.5898L28.5029 13.1768V12.9043L28.5117 12.6318C28.5117 11.2432 28.4648 10.4346 28.3711 10.2061C28.2832 9.97168 28.0869 9.78125 27.7822 9.63477ZM37.626 9.51172H37.3711C37.0605 9.51172 36.7559 9.59961 36.457 9.77539C36.1641 9.94531 35.9355 10.1562 35.7715 10.4082C35.6133 10.6602 35.5342 11.3809 35.5342 12.5703V13.9678C35.5342 14.835 35.666 15.4355 35.9297 15.7695C36.1934 16.0977 36.6475 16.2617 37.292 16.2617H37.4766C38.0977 16.2617 38.5986 15.9688 38.9795 15.3828C39.3604 14.791 39.5508 14.1201 39.5508 13.3701L39.5684 13.168V12.5439C39.5684 11.6826 39.3809 10.9619 39.0059 10.3818C38.6309 9.80176 38.1709 9.51172 37.626 9.51172ZM33.5303 15.9541C33.5303 15.8896 33.5625 15.5938 33.627 15.0664C33.6973 14.5391 33.7324 13.9004 33.7324 13.1504V10.6191L33.7412 10.1885V8.43066L33.7324 8V7.56934L33.7236 7.3584C33.7178 7.21191 33.7148 6.96875 33.7148 6.62891C33.7148 5.93164 33.5273 5.49512 33.1523 5.31934C32.7832 5.14355 32.5986 4.97363 32.5986 4.80957C32.5986 4.68652 32.6836 4.58398 32.8535 4.50195C33.2754 4.29688 33.9229 4.19434 34.7959 4.19434C35.1475 4.19434 35.373 4.39355 35.4727 4.79199C35.5312 5.02051 35.5605 5.81445 35.5605 7.17383C35.5605 8.5332 35.6689 9.21289 35.8857 9.21289C36.0205 9.21289 36.3193 9.11914 36.7822 8.93164C37.2451 8.74414 37.7285 8.65039 38.2324 8.65039C39.1992 8.65039 39.999 9.01953 40.6318 9.75781C41.2705 10.4961 41.5898 11.46 41.5898 12.6494V12.8779C41.5898 13.4521 41.4873 14.0088 41.2822 14.5479C40.8779 15.6025 40.1953 16.3438 39.2344 16.7715C38.7188 17 38.1885 17.1143 37.6436 17.1143H37.4326C37.2041 17.1143 36.8555 17.0586 36.3867 16.9473C35.918 16.8359 35.4521 16.7803 34.9893 16.7803L34.2686 16.8418C33.7764 16.8418 33.5303 16.5459 33.5303 15.9541ZM47.8213 9.51172H47.5664C47.2559 9.51172 46.9512 9.59961 46.6523 9.77539C46.3594 9.94531 46.1309 10.1562 45.9668 10.4082C45.8086 10.6602 45.7295 11.3809 45.7295 12.5703V13.9678C45.7295 14.835 45.8613 15.4355 46.125 15.7695C46.3887 16.0977 46.8428 16.2617 47.4873 16.2617H47.6719C48.293 16.2617 48.7939 15.9688 49.1748 15.3828C49.5557 14.791 49.7461 14.1201 49.7461 13.3701L49.7637 13.168V12.5439C49.7637 11.6826 49.5762 10.9619 49.2012 10.3818C48.8262 9.80176 48.3662 9.51172 47.8213 9.51172ZM43.7256 15.9541C43.7256 15.8896 43.7578 15.5938 43.8223 15.0664C43.8926 14.5391 43.9277 13.9004 43.9277 13.1504V10.6191L43.9365 10.1885V8.43066L43.9277 8V7.56934L43.9189 7.3584C43.9131 7.21191 43.9102 6.96875 43.9102 6.62891C43.9102 5.93164 43.7227 5.49512 43.3477 5.31934C42.9785 5.14355 42.7939 4.97363 42.7939 4.80957C42.7939 4.68652 42.8789 4.58398 43.0488 4.50195C43.4707 4.29688 44.1182 4.19434 44.9912 4.19434C45.3428 4.19434 45.5684 4.39355 45.668 4.79199C45.7266 5.02051 45.7559 5.81445 45.7559 7.17383C45.7559 8.5332 45.8643 9.21289 46.0811 9.21289C46.2158 9.21289 46.5146 9.11914 46.9775 8.93164C47.4404 8.74414 47.9238 8.65039 48.4277 8.65039C49.3945 8.65039 50.1943 9.01953 50.8271 9.75781C51.4658 10.4961 51.7852 11.46 51.7852 12.6494V12.8779C51.7852 13.4521 51.6826 14.0088 51.4775 14.5479C51.0732 15.6025 50.3906 16.3438 49.4297 16.7715C48.9141 17 48.3838 17.1143 47.8389 17.1143H47.6279C47.3994 17.1143 47.0508 17.0586 46.582 16.9473C46.1133 16.8359 45.6475 16.7803 45.1846 16.7803L44.4639 16.8418C43.9717 16.8418 43.7256 16.5459 43.7256 15.9541ZM53.332 16.6924C53.332 16.5693 53.4639 16.4111 53.7275 16.2178C53.9971 16.0244 54.1787 15.7227 54.2725 15.3125C54.3662 14.8965 54.4131 13.3262 54.4131 10.6016C54.4131 7.87695 54.3809 6.33301 54.3164 5.96973C54.2578 5.60645 54.1084 5.3457 53.8682 5.1875C53.4814 4.93555 53.2881 4.78027 53.2881 4.72168V4.61621C53.2881 4.5166 53.373 4.42871 53.543 4.35254C54.0703 4.12402 54.7734 4.00977 55.6523 4.00977H55.8281C56.127 4.00977 56.2998 4.21191 56.3467 4.61621C56.3525 4.66895 56.3555 5.11133 56.3555 5.94336V7.83301L56.3467 8.19336V8.74707L56.3379 9.10742C56.3379 9.10742 56.3379 10.0361 56.3379 11.8936C56.3379 13.6279 56.3643 14.7031 56.417 15.1191C56.4756 15.5293 56.6074 15.8281 56.8125 16.0156C56.8359 16.0332 56.959 16.1094 57.1816 16.2441C57.4043 16.3789 57.5156 16.5166 57.5156 16.6572C57.5156 16.8623 57.1523 16.9648 56.4258 16.9648L56.0654 16.9824H55.7051L54.2637 17.0088H54.0791C53.5811 17.0088 53.332 16.9033 53.332 16.6924ZM64.415 11.2871V11.0146C64.415 10.5811 64.2598 10.1914 63.9492 9.8457C63.6387 9.49414 63.2578 9.31836 62.8066 9.31836H62.6396C62.5576 9.33008 62.502 9.33594 62.4727 9.33594C62.0625 9.33594 61.6729 9.57031 61.3037 10.0391C60.9404 10.5078 60.7588 11.0088 60.7588 11.542V11.6562C60.7588 11.8438 60.8701 11.9375 61.0928 11.9375C61.1807 11.9551 61.2275 11.9639 61.2334 11.9639L61.4355 11.9727H61.4883L61.5498 11.9639L63.2461 11.8672L63.5625 11.832C64.1309 11.832 64.415 11.6504 64.415 11.2871ZM60.7588 13.6162C60.7588 14.2842 61.0107 14.8438 61.5146 15.2949C62.0186 15.7461 62.6572 15.9717 63.4307 15.9717C63.7412 15.9717 64.0225 15.9277 64.2744 15.8398C64.5322 15.7461 64.8105 15.6348 65.1094 15.5059C65.4141 15.377 65.6045 15.3125 65.6807 15.3125C65.915 15.3125 66.0322 15.4385 66.0322 15.6904C66.0322 16.0303 65.5986 16.3936 64.7314 16.7803C64.1689 17.0322 63.5654 17.1582 62.9209 17.1582H62.7275C61.626 17.1582 60.7119 16.8242 59.9854 16.1562C59.5928 15.793 59.2881 15.3301 59.0713 14.7676C58.8545 14.1992 58.7461 13.5898 58.7461 12.9395L58.7549 12.7373V12.5352C58.7549 11.9727 58.8838 11.4189 59.1416 10.874C59.4053 10.3291 59.7188 9.88086 60.082 9.5293C60.8496 8.79102 61.7607 8.41895 62.8154 8.41309C64.4092 8.41309 65.4697 9.03418 65.9971 10.2764C66.1611 10.6689 66.2432 11.0293 66.2432 11.3574V11.5332C66.2432 11.9375 66.0762 12.21 65.7422 12.3506C65.4082 12.4854 64.6201 12.5967 63.3779 12.6846C62.1357 12.7725 61.4619 12.8311 61.3564 12.8604C60.958 12.96 60.7588 13.2119 60.7588 13.6162ZM96.5479 6.10156C96.0674 5.77344 95.5254 5.60938 94.9219 5.60938C94.3242 5.60938 93.835 5.76758 93.4541 6.08398C93.0732 6.39453 92.8828 6.83398 92.8828 7.40234C92.8828 7.96484 93.167 8.46289 93.7354 8.89648C94.0752 9.16016 94.7695 9.51758 95.8184 9.96875C96.8672 10.4199 97.5967 10.8359 98.0068 11.2168C98.792 11.9434 99.1846 12.6992 99.1846 13.4844V13.8008C99.1846 14.7734 98.7979 15.5645 98.0244 16.1738C97.667 16.4551 97.2217 16.6807 96.6885 16.8506C96.1553 17.0146 95.6221 17.0967 95.0889 17.0967H94.7637C93.5566 17.0967 92.499 16.915 91.5908 16.5518C91.1807 16.3877 90.9756 15.9395 90.9756 15.207V14.8994C90.9756 14.0322 91.125 13.5986 91.4238 13.5986C91.6289 13.5986 91.9072 13.877 92.2588 14.4336C92.6104 14.9902 93.0146 15.4092 93.4717 15.6904C93.9346 15.9717 94.4912 16.1123 95.1416 16.1123C95.792 16.1123 96.3164 15.9424 96.7148 15.6025C97.1133 15.2568 97.3125 14.832 97.3125 14.3281C97.3125 13.6367 96.9902 13.0537 96.3457 12.5791C96.0703 12.3799 95.3789 12.0254 94.2715 11.5156C93.1641 11 92.3965 10.5195 91.9688 10.0742C91.3828 9.46484 91.0898 8.7207 91.0898 7.8418C91.0898 6.96289 91.4033 6.2334 92.0303 5.65332C92.376 5.33105 92.8066 5.08203 93.3223 4.90625C93.8379 4.72461 94.3652 4.63379 94.9043 4.63379H95.2295C95.4521 4.63379 95.7686 4.67187 96.1787 4.74805L96.4863 4.80957C96.8496 4.87988 97.0459 4.91797 97.0752 4.92383L97.3477 4.94141L97.6113 4.9502C97.8574 4.96777 98.0303 4.99707 98.1299 5.03809C98.4756 5.17871 98.6484 5.66797 98.6484 6.50586C98.6484 7.34375 98.4844 7.7627 98.1562 7.7627C97.9922 7.7627 97.7461 7.52832 97.418 7.05957C97.0898 6.59082 96.7998 6.27148 96.5479 6.10156ZM107.578 13.0801V12.5615C107.578 11.6182 107.385 10.8652 106.998 10.3027C106.611 9.74023 106.125 9.45898 105.539 9.45898H105.451C105.129 9.45898 104.815 9.5498 104.511 9.73145C104.206 9.90723 103.972 10.1328 103.808 10.4082C103.649 10.6836 103.57 11.4951 103.57 12.8428V13.5898L103.579 13.6865V14.0557L103.588 14.1436V14.3281C103.6 14.457 103.605 14.5508 103.605 14.6094C103.605 15.1074 103.764 15.4971 104.08 15.7783C104.402 16.0537 104.833 16.1914 105.372 16.1914H105.46C106.104 16.1914 106.617 15.8955 106.998 15.3037C107.385 14.7119 107.578 13.9707 107.578 13.0801ZM104.062 16.8594C103.758 16.8594 103.605 17.252 103.605 18.0371C103.605 18.8281 103.661 19.3291 103.772 19.54C103.89 19.7568 104.074 19.9531 104.326 20.1289C104.584 20.3047 104.713 20.4541 104.713 20.5771C104.713 20.8408 104.332 20.9727 103.57 20.9727H102.691C101.355 20.9727 100.688 20.8379 100.688 20.5684C100.688 20.4863 100.857 20.2812 101.197 19.9531C101.379 19.7773 101.522 19.4199 101.628 18.8809C101.733 18.3477 101.786 17.334 101.786 15.8398V12.1924L101.769 11.252C101.769 10.6777 101.692 10.2588 101.54 9.99512C101.481 9.89551 101.329 9.76074 101.083 9.59082C100.837 9.41504 100.714 9.26562 100.714 9.14258C100.714 9.01953 100.784 8.92285 100.925 8.85254C101.382 8.62988 101.985 8.51855 102.735 8.51855C102.929 8.51855 103.125 8.63574 103.324 8.87012C103.529 9.10449 103.644 9.22168 103.667 9.22168C103.761 9.22168 103.948 9.14258 104.229 8.98438C104.517 8.82031 104.669 8.73242 104.687 8.7207C105.19 8.48633 105.627 8.36914 105.996 8.36914H106.453C106.781 8.36914 107.153 8.45996 107.569 8.6416C108.366 8.9873 108.938 9.63477 109.283 10.584C109.488 11.1406 109.591 11.6826 109.591 12.21V12.7021C109.591 13.2471 109.479 13.8066 109.257 14.3809C108.817 15.5176 108.073 16.291 107.024 16.7012C106.579 16.877 106.061 16.9648 105.469 16.9648L104.062 16.8594ZM115.664 16.6572C115.664 16.8857 115.134 17 114.073 17H113.142L112.772 16.9824L112.219 16.9736C111.598 16.9736 111.287 16.8623 111.287 16.6396C111.287 16.4814 111.425 16.3145 111.7 16.1387C111.981 15.957 112.169 15.7256 112.263 15.4443C112.362 15.1572 112.412 14.3164 112.412 12.9219C112.412 11.5273 112.365 10.6807 112.271 10.3818C112.184 10.083 112.043 9.86914 111.85 9.74023C111.504 9.51172 111.331 9.34473 111.331 9.23926C111.331 9.13379 111.393 9.04004 111.516 8.95801C111.879 8.71191 112.494 8.58887 113.361 8.58887H113.528C113.862 8.58887 114.1 8.75879 114.24 9.09863C114.381 9.43262 114.495 9.59961 114.583 9.59961C114.671 9.59961 114.82 9.51758 115.031 9.35352C115.248 9.18945 115.506 9.02539 115.805 8.86133C116.109 8.69727 116.446 8.61523 116.815 8.61523C117.185 8.61523 117.466 8.71191 117.659 8.90527C117.858 9.09277 117.958 9.33594 117.958 9.63477C117.952 9.93945 117.873 10.168 117.721 10.3203C117.568 10.4727 117.404 10.5488 117.229 10.5488C117.053 10.5488 116.821 10.4785 116.534 10.3379C116.247 10.1914 116.007 10.1182 115.813 10.1182C115.62 10.1182 115.409 10.2002 115.181 10.3643C114.952 10.5225 114.756 10.8096 114.592 11.2256C114.434 11.6357 114.354 12.3418 114.354 13.3438C114.354 14.3398 114.425 14.9844 114.565 15.2773C114.706 15.5645 114.923 15.8281 115.216 16.0684C115.515 16.3086 115.664 16.5049 115.664 16.6572ZM120.964 12.4736V12.7988C120.964 13.7949 121.157 14.6211 121.544 15.2773C121.726 15.5879 121.957 15.834 122.238 16.0156C122.52 16.1973 122.804 16.2881 123.091 16.2881H123.267C123.8 16.2881 124.26 16.0303 124.646 15.5146C125.039 14.9932 125.235 14.2549 125.235 13.2998V12.6758C125.235 11.7324 125.039 10.9326 124.646 10.2764C124.26 9.61426 123.768 9.2832 123.17 9.2832H122.897C122.358 9.2832 121.901 9.57324 121.526 10.1533C121.151 10.7334 120.964 11.5068 120.964 12.4736ZM127.354 12.5088V12.9482C127.354 13.4111 127.26 13.918 127.072 14.4688C126.68 15.6172 125.897 16.4199 124.726 16.877C124.216 17.0762 123.724 17.1758 123.249 17.1758H122.959C121.84 17.1758 120.905 16.8008 120.155 16.0508C119.815 15.7109 119.54 15.2627 119.329 14.7061C119.118 14.1494 119.013 13.5576 119.013 12.9307V12.7812C119.013 12.2129 119.112 11.6387 119.312 11.0586C119.698 9.92773 120.457 9.14258 121.588 8.70312C122.098 8.50391 122.587 8.4043 123.056 8.4043H123.495C124.017 8.4043 124.529 8.52148 125.033 8.75586C125.988 9.20117 126.653 9.91016 127.028 10.8828C127.245 11.457 127.354 11.999 127.354 12.5088ZM137.769 16.042C138.026 16.2412 138.155 16.3848 138.155 16.4727C138.155 16.5547 138.111 16.6338 138.023 16.71C137.771 16.9385 137.232 17.0527 136.406 17.0527C136.137 17.0527 135.926 17.0088 135.773 16.9209C135.627 16.8271 135.495 16.6602 135.378 16.4199C135.267 16.1797 135.173 16.0596 135.097 16.0596C135.021 16.0654 134.851 16.1621 134.587 16.3496C133.849 16.8828 133.143 17.1494 132.469 17.1494C132.463 17.1494 132.454 17.1494 132.442 17.1494H132.179C131.212 17.1494 130.512 16.7393 130.078 15.9189C129.855 15.4912 129.741 14.4453 129.735 12.7812C129.735 11.1113 129.709 10.1943 129.656 10.0303C129.604 9.86035 129.416 9.70215 129.094 9.55566C128.777 9.40332 128.619 9.28613 128.619 9.2041C128.619 8.9873 128.722 8.84668 128.927 8.78223C129.384 8.63574 129.967 8.5625 130.676 8.5625C131.086 8.5625 131.347 8.72949 131.458 9.06348C131.604 9.49121 131.678 10.5137 131.678 12.1309C131.678 13.7422 131.748 14.7207 131.889 15.0664C132.129 15.6582 132.565 15.9541 133.198 15.9541C133.526 15.9541 133.852 15.8691 134.174 15.6992C134.502 15.5293 134.757 15.3008 134.938 15.0137C135.12 14.7266 135.211 13.9385 135.211 12.6494C135.211 11.3545 135.167 10.54 135.079 10.2061C134.997 9.87207 134.868 9.61133 134.692 9.42383C134.517 9.23047 134.429 9.07812 134.429 8.9668C134.429 8.70898 135.117 8.58008 136.494 8.58008C136.781 8.58008 136.969 8.64453 137.057 8.77344C137.145 8.89648 137.188 9.125 137.188 9.45898L137.162 9.97754L137.118 12.3154C137.118 13.8389 137.162 14.791 137.25 15.1719C137.338 15.5469 137.511 15.8369 137.769 16.042ZM143.367 15.8398L144.703 15.6377C144.855 15.6377 144.932 15.7578 144.932 15.998C144.932 16.2324 144.706 16.4756 144.255 16.7275C143.804 16.9795 143.329 17.1055 142.831 17.1055H142.655C142.263 17.1055 141.908 17.0029 141.592 16.7979C141.275 16.5928 141.044 16.3408 140.897 16.042C140.646 15.5205 140.52 14.5332 140.52 13.0801C140.52 11.6211 140.467 10.71 140.361 10.3467C140.262 9.9834 140.13 9.73438 139.966 9.59961C139.661 9.35352 139.509 9.21875 139.509 9.19531C139.509 9.04297 139.588 8.91406 139.746 8.80859C140.15 8.53906 140.37 8.38672 140.405 8.35156C140.446 8.31055 140.672 7.83008 141.082 6.91016C141.287 6.45312 141.519 6.22461 141.776 6.22461C142.04 6.22461 142.216 6.31836 142.304 6.50586C142.327 6.55273 142.377 6.80762 142.453 7.27051C142.535 7.7334 142.649 8.03223 142.796 8.16699C142.942 8.2959 143.268 8.42188 143.771 8.54492C144.275 8.66211 144.527 8.83203 144.527 9.05469C144.527 9.27734 144.249 9.44434 143.692 9.55566C143.136 9.66699 142.799 9.81055 142.682 9.98633C142.477 10.2852 142.374 11.1289 142.374 12.5176C142.374 13.9062 142.438 14.7822 142.567 15.1455C142.731 15.6084 142.998 15.8398 143.367 15.8398Z" fill="#051C2E"/>
<defs>
<linearGradient id="paint0_linear_3_9" x1="67" y1="10.6399" x2="90.5644" y2="10.6399" gradientUnits="userSpaceOnUse">
<stop stop-color="#158A28"/>
<stop offset="1" stop-color="#05240A"/>
</linearGradient>
</defs>
</svg>
